<svg width="122" height="31" viewBox="0 0 122 31" fill="none" xmlns="http://www.w3.org/2000/svg">
<g id="Group 1">
<path id="Vector" d="M3.97673 0C3.97673 0 0 11.7561 0 18.384C0 25.0119 5.38934 30.4012 12.0172 30.4012C18.6451 30.4012 24.0278 25.0119 24.0278 18.384C24.0278 4.85376 3.97673 0 3.97673 0ZM20.9214 14.7889C20.6402 14.9094 20.4259 15.0366 20.4059 15.3914C20.3925 15.5722 20.2854 15.7596 20.1715 15.9069C19.723 16.4894 19.261 17.0584 18.7924 17.6208C18.5648 17.8953 18.3104 18.143 18.3171 18.5246C18.3238 18.9263 18.3104 19.3347 18.3907 19.723C18.6853 21.1021 18.7388 22.4746 18.4911 23.8604C18.4376 24.155 18.4242 24.4428 18.1966 24.6571C17.6074 25.2128 17.0317 25.6814 15.8935 25.2395C14.9362 24.8713 14.0391 25.0387 13.1687 25.5542C12.7135 25.822 12.1913 26.0496 11.6825 25.8488C11.1938 25.6613 10.7251 25.3467 10.3435 24.9851C9.64057 24.3156 9.03134 23.5524 8.34846 22.8696C8.07397 22.6018 7.72584 22.3674 7.36432 22.2402C6.78187 22.0327 6.16595 21.9323 5.56341 21.7783C4.81359 21.5842 4.09724 21.3231 3.59513 20.6737C3.54826 20.6134 3.40767 20.6268 3.32733 20.5866C3.04615 20.4393 2.75827 20.292 2.50387 20.1113C2.44362 20.0644 2.43023 19.8703 2.4704 19.7765C2.50387 19.7029 2.65785 19.6426 2.75158 19.656C2.95242 19.6761 3.13988 19.7632 3.34072 19.7899C3.44115 19.8033 3.61521 19.7899 3.64869 19.7297C3.98343 19.1405 4.49224 19.1338 5.03452 19.3079C5.79103 19.5556 6.54086 19.8368 7.29068 20.118C7.60533 20.2318 7.75262 20.1515 7.73923 19.8167C7.72584 19.4418 7.57186 19.1205 7.27059 18.9129C6.54086 18.4041 5.80442 17.902 5.04121 17.4467C4.29139 16.9982 3.54826 16.5697 3.44115 15.5789C3.44115 15.5186 3.34072 15.445 3.26708 15.4249C2.852 15.291 2.63777 14.9563 2.4704 14.5947C2.3298 14.3002 2.53065 14.0458 2.84531 14.1328C3.1064 14.2064 3.33403 14.3939 3.58843 14.5077C3.73572 14.5747 3.91648 14.6483 4.07046 14.6282C4.61944 14.5546 5.16172 14.5412 5.65714 14.8224C6.44713 15.2709 7.06305 15.9136 7.71245 16.563C8.85058 17.7145 9.29913 16.9647 7.98025 15.1839C7.69237 14.9429 4.13071 11.89 5.85798 10.3904C5.61027 9.99539 5.34917 9.64056 5.14833 9.25226C5.07469 9.10498 5.08808 8.8171 5.1885 8.70998C5.29562 8.59617 5.5701 8.5627 5.73078 8.61625C5.9651 8.69659 6.21281 8.85057 6.36679 9.04472C6.59441 9.3393 6.67475 9.78116 6.94255 10.0088C7.23042 10.2431 7.69237 10.2498 8.02711 10.4506C8.87066 10.9528 9.17193 11.7963 9.37947 12.7001C9.49328 13.1754 9.56023 13.711 9.83472 14.0926C10.1695 14.568 10.6917 14.9161 11.1402 15.3044C11.2607 15.4115 11.3745 15.4048 11.4616 15.2308C11.6557 14.8491 11.7227 14.4542 11.5084 14.0659C11.3611 13.7981 11.2139 13.5303 11.0197 13.2959C10.5243 12.7068 10.4373 11.7026 10.6046 10.9862C10.6805 10.6693 10.6582 10.3145 10.5377 9.92175C10.5109 9.82133 10.5778 9.5937 10.6783 9.52006C10.772 9.45311 11.0197 9.44641 11.1 9.52006C11.3611 9.75438 11.3946 10.0021 11.6222 10.2766C11.7026 10.3703 12.439 10.6783 12.7403 10.8389C13.2759 11.1335 13.6575 11.8967 13.7713 12.4658C13.7445 17.2459 16.1011 16.804 16.2818 16.5095C16.5697 16.0475 16.8576 15.5923 17.1455 15.1303C17.661 14.3203 18.3572 13.8449 19.3682 13.9186C19.7498 13.9453 20.1582 13.9788 20.4193 13.5838C20.4661 13.5102 20.5866 13.47 20.687 13.4432C21.0017 13.3562 21.2762 13.4566 21.4703 13.711C21.6645 13.9654 21.544 14.2131 21.3565 14.414C21.2293 14.5479 21.0753 14.6818 20.908 14.7621L20.9214 14.7889Z" fill="white"/>
<g id="Group">
<path id="Vector_2" d="M38.3212 16.9045C38.0601 16.3556 37.6451 15.9137 37.0894 15.5856C36.527 15.2576 35.7638 15.0969 34.7864 15.0969C33.8089 15.0969 33.347 15.204 32.6574 15.4183C31.9678 15.6325 31.3117 15.9472 30.6958 16.3556C30.3008 16.6233 29.9192 16.9246 29.5577 17.2727L29.3167 16.2886C29.1828 15.753 28.7075 15.3781 28.1585 15.3781C27.4957 15.3781 26.9668 15.9137 26.9668 16.5698V27.6631C26.9668 28.4397 27.5961 29.069 28.3727 29.069C29.1493 29.069 29.7786 28.4397 29.7786 27.6631V19.877C29.9728 19.636 30.1937 19.4084 30.4548 19.1875C30.9435 18.7791 31.4925 18.451 32.1084 18.2033C32.7244 17.9623 33.3336 17.8418 33.9294 17.8418C34.5253 17.8418 35.0475 18.0092 35.4893 18.3439C35.9312 18.6787 36.1454 19.3348 36.1454 20.3055V27.6564C36.1454 28.433 36.7747 29.0624 37.5513 29.0624C38.3279 29.0624 38.9572 28.433 38.9572 27.6564V20.8947C38.9572 20.1649 38.9171 19.4553 38.8434 18.7657C38.7698 18.0761 38.6024 17.4535 38.3413 16.8978L38.3212 16.9045Z" fill="white"/>
<path id="Vector_3" d="M51.8112 15.994C50.8003 15.3982 49.622 15.0969 48.2763 15.0969C46.9307 15.0969 45.7792 15.3982 44.7682 15.994C43.7573 16.5899 42.974 17.4267 42.4117 18.4912C41.8493 19.5557 41.5681 20.8076 41.5681 22.247C41.5681 23.6864 41.8493 24.9116 42.4117 25.976C42.974 27.0405 43.7573 27.8707 44.7682 28.4598C45.7792 29.049 46.9441 29.3435 48.2763 29.3435C49.6086 29.3435 51.048 29.049 52.0522 28.4598C52.6815 28.0916 53.2372 27.6029 53.7259 27.0003C54.2013 26.4045 54.0473 25.5208 53.3979 25.1191C52.8623 24.7844 52.166 24.8848 51.751 25.3601C51.4631 25.6882 51.1618 25.976 50.8271 26.2371C50.2312 26.7058 49.3743 26.9401 48.2763 26.9401C47.1784 26.9401 46.1474 26.5719 45.4712 25.8287C44.8352 25.1325 44.5005 24.2019 44.467 23.037H54.9578C54.9779 22.9232 54.9913 22.796 54.998 22.6554C55.0047 22.5148 55.0113 22.3809 55.0113 22.247C55.0113 20.8076 54.7302 19.5557 54.1678 18.4912C53.6054 17.4267 52.8221 16.5966 51.8112 15.994ZM45.498 18.4778C46.1876 17.7414 47.1181 17.3665 48.2763 17.3665C49.4345 17.3665 50.5593 17.8217 51.1953 18.7389C51.5702 19.2812 51.8313 19.9038 51.9853 20.6202H44.5138C44.6344 19.7632 44.9624 19.0536 45.498 18.4711V18.4778Z" fill="white"/>
<path id="Vector_4" d="M68.0664 19.4284C67.1759 18.8928 65.9508 18.4309 64.3775 18.0426C62.8243 17.6677 61.7799 17.2325 61.251 16.7237C60.7154 16.2216 60.4543 15.6191 60.4543 14.9295C60.4543 14.2399 60.7422 13.5102 61.3113 13.075C61.8803 12.6466 62.7105 12.4323 63.7951 12.4323C64.8796 12.4323 65.1742 12.5863 65.8035 12.8943C66.165 13.075 66.5266 13.3227 66.8747 13.6374C67.3567 14.0726 68.0664 14.1328 68.6086 13.7847C69.3919 13.2826 69.4857 12.1779 68.8028 11.5352C68.4011 11.1603 67.9659 10.8389 67.4973 10.5645C66.5265 9.9954 65.288 9.70752 63.7951 9.70752C62.3021 9.70752 61.4586 9.92845 60.5414 10.3636C59.6242 10.8055 58.9212 11.408 58.4392 12.1846C57.9505 12.9612 57.7095 13.8717 57.7095 14.9228C57.7095 15.9739 57.8701 16.5429 58.1848 17.266C58.4994 17.989 59.0685 18.625 59.8786 19.174C60.6954 19.723 61.8268 20.1916 63.2862 20.5599C64.4445 20.841 65.3416 21.149 65.9776 21.4837C66.6136 21.8185 67.0554 22.1867 67.3098 22.575C67.5643 22.97 67.6915 23.4252 67.6915 23.9474C67.6915 24.8245 67.3969 25.5207 66.8077 26.0228C66.2186 26.525 65.355 26.7794 64.2101 26.7794C63.0653 26.7794 62.0477 26.5183 61.2644 25.9961C60.7355 25.6479 60.2401 25.1458 59.7715 24.4964C59.3564 23.9207 58.5731 23.7399 57.9505 24.0947C57.2609 24.483 57.0333 25.3734 57.455 26.0429C57.83 26.6388 58.2517 27.1409 58.7137 27.556C59.4836 28.2388 60.3271 28.7275 61.251 29.0288C62.1749 29.3301 63.1323 29.4774 64.1298 29.4774C65.1273 29.4774 66.5399 29.2297 67.4973 28.7342C68.448 28.2388 69.1911 27.5827 69.7133 26.7593C70.2355 25.9358 70.4966 25.0119 70.4966 23.9809C70.4966 22.9499 70.3158 22.0662 69.9476 21.3298C69.5861 20.5933 68.9568 19.9573 68.0664 19.4217V19.4284Z" fill="white"/>
<path id="Vector_5" d="M85.4194 12.5997C86.1491 12.5997 86.7383 12.0105 86.7383 11.2808C86.7383 10.5511 86.1491 9.96191 85.4194 9.96191H73.0205C72.2908 9.96191 71.7017 10.5511 71.7017 11.2808C71.7017 12.0105 72.2908 12.5997 73.0205 12.5997H77.6801V27.6631C77.6801 28.4397 78.3095 29.069 79.0861 29.069C79.8627 29.069 80.492 28.4397 80.492 27.6631V12.5997H85.4261H85.4194Z" fill="white"/>
<path id="Vector_6" d="M103.415 12.4859C102.525 11.6089 101.487 10.926 100.289 10.4373C99.0902 9.94853 97.7914 9.70752 96.3922 9.70752C94.9929 9.70752 93.654 9.94853 92.4489 10.4373C91.2438 10.926 90.1927 11.6089 89.2956 12.4859C88.3985 13.3629 87.7023 14.4006 87.2069 15.599C86.7114 16.7974 86.4637 18.1028 86.4637 19.5288C86.4637 20.9548 86.7114 22.2336 87.2069 23.4252C87.3541 23.7868 87.5215 24.1282 87.709 24.4629L85.2185 26.6655C84.6762 27.1476 84.6226 27.9777 85.1047 28.5267C85.5867 29.069 86.4169 29.1225 86.9658 28.6405L89.309 26.5651C90.2061 27.4488 91.2505 28.1317 92.4489 28.6137C93.192 28.915 93.9753 29.1225 94.7988 29.2364C95.3143 29.31 95.8432 29.3435 96.3855 29.3435C96.9278 29.3435 97.4031 29.31 97.8918 29.2431C98.7287 29.1292 99.5254 28.9217 100.289 28.6137C101.487 28.125 102.531 27.4421 103.415 26.5517C104.305 25.6613 104.995 24.6236 105.49 23.4252C105.986 22.2269 106.234 20.9281 106.234 19.5288C106.234 18.1296 105.986 16.7974 105.49 15.599C104.995 14.4006 104.305 13.3629 103.415 12.4859ZM102.464 23.1909C101.855 24.2688 101.032 25.1123 99.9806 25.7283C98.9362 26.3442 97.7378 26.6521 96.3922 26.6521C95.0465 26.6521 93.8414 26.3442 92.7703 25.7283C92.2681 25.4404 91.8129 25.0989 91.4112 24.704C90.956 24.2621 90.5677 23.76 90.2396 23.1909C90.1124 22.97 89.9986 22.7491 89.9049 22.5214C89.5099 21.6176 89.3157 20.6201 89.3157 19.5355C89.3157 18.451 89.6237 16.9246 90.2396 15.8601C90.8555 14.7956 91.6991 13.952 92.7636 13.3361C93.828 12.7202 95.0331 12.4122 96.3855 12.4122C97.7378 12.4122 98.9295 12.7202 99.9739 13.3361C101.018 13.952 101.848 14.7956 102.458 15.8601C103.067 16.9246 103.368 18.1497 103.368 19.5355C103.368 20.9214 103.067 22.1197 102.458 23.1976L102.464 23.1909Z" fill="white"/>
<path id="Vector_7" d="M121.177 13.162C120.634 12.1913 119.878 11.4147 118.907 10.8322C117.936 10.2498 116.791 9.96191 115.486 9.96191H108.724V27.6631C108.724 28.4397 109.353 29.069 110.13 29.069C110.907 29.069 111.536 28.4397 111.536 27.6631V22.8963H115.466C116.778 22.8963 117.923 22.6085 118.9 22.0394C119.884 21.4703 120.641 20.6937 121.183 19.7096C121.725 18.7255 122 17.6409 122 16.4425C122 15.2441 121.725 14.1328 121.183 13.162H121.177ZM117.95 19.2477C117.2 19.9238 116.209 20.2586 114.977 20.2586H111.529V12.5997H115.011C116.242 12.5997 117.233 12.921 117.97 13.5704C118.706 14.2131 119.081 15.1772 119.081 16.4425C119.081 17.7078 118.706 18.5715 117.956 19.2477H117.95Z" fill="white"/>
</g>
</g>
</svg>
